<svg id="Group_59" data-name="Group 59" xmlns="http://www.w3.org/2000/svg" width="81.067" height="75.542" viewBox="0 0 81.067 75.542">
  <g id="Group_52" data-name="Group 52" transform="translate(0)">
    <path id="Path_789" data-name="Path 789" d="M3359.377,1730.116l-.252-.331-2.125-2.8-.116-.154-.781-1.027-1.6-2.105v0h0l-1.455,2.207-.206.315h0l-.481.731-2.037,3.1-.235.353-.018.025,2.706-.09a33.981,33.981,0,0,1-66.648,7.622,1.9,1.9,0,0,0-3.649,1.042,37.785,37.785,0,0,0,36.361,27.517,37.764,37.764,0,0,0,37.74-36.308l.261-.009Z" transform="translate(-3278.31 -1690.975)" fill="#ff39e3"/>
    <path id="Path_790" data-name="Path 790" d="M3270.463,1632.851h0l1.455-2.207.206-.316h0l.481-.731,2.037-3.1.235-.354.018-.025-2.726.09a33.981,33.981,0,0,1,66.669-8.144,1.9,1.9,0,0,0,3.65-1.042,37.775,37.775,0,0,0-74.119,9.313l-.244.008-2.532.084.252.331,2.125,2.8.116.154.782,1.027,1.6,2.105Z" transform="translate(-3265.593 -1589.509)" fill="#ff39e3"/>
  </g>
  <g id="Group_58" data-name="Group 58" transform="translate(17.989 11.091)">
    <path id="Path_791" data-name="Path 791" d="M3361.909,1634.992l-22.544,13.013v26.034l22.544,13.021,22.545-13.021v-26.034Zm0,3.276,18.3,10.56-4.4,2.539-18.29-10.56Zm-7.24,4.177,18.29,10.56-2.865,1.659L3351.8,1644.1Zm5.824,40.516h0l-18.29-10.56V1654.12l8.629,14.943,9.662-5.581Zm-15.834-30.26,14.416,8.324-7.206,4.161Zm-1.041-3.877,5.342-3.082,18.3,10.56-5.346,3.084Zm38,23.576-18.288,10.559v-21.12l6.764-3.907,2.837-1.631,8.687-5.021Z" transform="translate(-3339.365 -1634.992)" fill="#ff39e3"/>
    <g id="Group_57" data-name="Group 57" transform="translate(29.577 23.175)">
      <g id="Group_53" data-name="Group 53" transform="translate(0.758)">
        <ellipse id="Ellipse_13" data-name="Ellipse 13" cx="1.171" cy="3.695" rx="1.171" ry="3.695" transform="translate(0 2.524)" fill="#ff39e3"/>
        <ellipse id="Ellipse_14" data-name="Ellipse 14" cx="1.171" cy="3.695" rx="1.171" ry="3.695" transform="translate(3.881)" fill="#ff39e3"/>
      </g>
      <g id="Group_56" data-name="Group 56" transform="translate(0 7.502)">
        <g id="Group_55" data-name="Group 55">
          <g id="Group_54" data-name="Group 54">
            <path id="Path_792" data-name="Path 792" d="M3468.9,1760.807c0-.01-.02-.013-.026,0a10.361,10.361,0,0,1-8.161,4.8.043.043,0,0,0-.052.046c.029.606.378,5.454,3.87,4.281C3469.01,1768.427,3468.928,1761.328,3468.9,1760.807Zm-4.193,8.409a1.9,1.9,0,0,1-2.476-.531,7.818,7.818,0,0,1,5-1.9A4.934,4.934,0,0,1,3464.706,1769.215Z" transform="translate(-3460.66 -1760.798)" fill="#ff39e3"/>
          </g>
        </g>
      </g>
    </g>
  </g>
</svg>
