<svg xmlns="http://www.w3.org/2000/svg" width="132.363" height="64.93" viewBox="0 0 132.363 64.93">
  <g id="Group_324" data-name="Group 324" transform="translate(-1085.637 -4061)">
    <g id="Group_216" data-name="Group 216" transform="translate(2485.486 2487.691)">
      <g id="Group_210" data-name="Group 210" transform="translate(-1384.849 1615.478)">
        <path id="Path_1195" data-name="Path 1195" d="M-1369.934,1645.118a7.244,7.244,0,0,1-7.457,7,7.238,7.238,0,0,1-7.457-7,7.234,7.234,0,0,1,7.457-7.006A7.24,7.24,0,0,1-1369.934,1645.118Z" transform="translate(1384.849 -1638.112)" fill="#ff39e3"/>
        <rect id="Rectangle_58" data-name="Rectangle 58" width="1.714" height="12.935" transform="translate(6.6 9.826)" fill="#ff39e3"/>
      </g>
      <g id="Group_215" data-name="Group 215" transform="translate(-1359.598 1573.309)">
        <g id="Group_211" data-name="Group 211" transform="translate(0 3.91)">
          <path id="Path_1196" data-name="Path 1196" d="M-1333.544,1585.192a6.077,6.077,0,0,1-6.252,5.872,6.069,6.069,0,0,1-6.248-5.872,6.068,6.068,0,0,1,6.248-5.875A6.076,6.076,0,0,1-1333.544,1585.192Z" transform="translate(1346.044 -1579.317)" fill="#ff39e3"/>
          <rect id="Rectangle_59" data-name="Rectangle 59" width="1.436" height="10.848" transform="translate(5.532 8.241)" fill="#ff39e3"/>
        </g>
        <g id="Group_214" data-name="Group 214" transform="translate(1.805)">
          <path id="Path_1197" data-name="Path 1197" d="M-1290.731,1616.453v4.633h37.768v28.554h-90.307V1605.95h90.307v10.5Z" transform="translate(1343.27 -1584.71)" fill="#ff39e3"/>
          <rect id="Rectangle_60" data-name="Rectangle 60" width="32.517" height="43.691" transform="translate(13.139)" fill="#ff39e3"/>
          <g id="Group_212" data-name="Group 212" transform="translate(66.073 3.91)">
            <path id="Path_1198" data-name="Path 1198" d="M-1229.228,1585.192a6.077,6.077,0,0,1-6.248,5.872,6.073,6.073,0,0,1-6.256-5.872,6.072,6.072,0,0,1,6.256-5.875A6.076,6.076,0,0,1-1229.228,1585.192Z" transform="translate(1241.732 -1579.317)" fill="#ff39e3"/>
            <rect id="Rectangle_61" data-name="Rectangle 61" width="1.44" height="10.848" transform="translate(5.532 8.241)" fill="#ff39e3"/>
          </g>
          <g id="Group_213" data-name="Group 213" transform="translate(50.172 3.91)">
            <path id="Path_1199" data-name="Path 1199" d="M-1253.671,1585.192a6.073,6.073,0,0,1-6.244,5.872,6.069,6.069,0,0,1-6.251-5.872,6.069,6.069,0,0,1,6.251-5.875A6.072,6.072,0,0,1-1253.671,1585.192Z" transform="translate(1266.167 -1579.317)" fill="#ff39e3"/>
            <rect id="Rectangle_62" data-name="Rectangle 62" width="1.44" height="10.848" transform="translate(5.528 8.241)" fill="#ff39e3"/>
          </g>
        </g>
      </g>
    </g>
    <g id="Group_217" data-name="Group 217" transform="translate(1085.637 4110.364)">
      <path id="Path_1195-2" data-name="Path 1195" d="M-1374.649,1642.9a4.954,4.954,0,0,1-5.1,4.785,4.95,4.95,0,0,1-5.1-4.785,4.947,4.947,0,0,1,5.1-4.791A4.951,4.951,0,0,1-1374.649,1642.9Z" transform="translate(1384.849 -1638.112)" fill="#ff39e3"/>
      <rect id="Rectangle_58-2" data-name="Rectangle 58" width="1.172" height="8.846" transform="translate(4.514 6.72)" fill="#ff39e3"/>
    </g>
  </g>
</svg>
