<svg xmlns="http://www.w3.org/2000/svg" width="41.699" height="34.039" viewBox="0 0 41.699 34.039">
  <g id="Group_207" data-name="Group 207" transform="translate(0)">
    <g id="Group_208" data-name="Group 208" transform="translate(0 0)">
      <path id="Path_1191" data-name="Path 1191" d="M-998.307,1476.408a8,8,0,0,1-8.233,7.727,7.989,7.989,0,0,1-8.229-7.727,7.985,7.985,0,0,1,8.229-7.734A8,8,0,0,1-998.307,1476.408Z" transform="translate(1040.006 -1459.765)" fill="#ff39e3"/>
      <rect id="Rectangle_56" data-name="Rectangle 56" width="1.895" height="14.282" transform="translate(32.518 19.756)" fill="#ff39e3"/>
      <g id="Group_206" data-name="Group 206">
        <path id="Path_1192" data-name="Path 1192" d="M-1015.28,1526.984c0,5.774-5,10.465-11.152,10.465s-11.152-4.691-11.152-10.465c0-5.8,4.986-10.476,11.152-10.476S-1015.28,1521.189-1015.28,1526.984Z" transform="translate(1037.585 -1516.508)" fill="#ff39e3"/>
        <rect id="Rectangle_57" data-name="Rectangle 57" width="2.563" height="19.344" transform="translate(9.871 14.694)" fill="#ff39e3"/>
      </g>
    </g>
  </g>
</svg>
