<svg xmlns="http://www.w3.org/2000/svg" width="90.836" height="49.89" viewBox="0 0 90.836 49.89">
  <g id="Group_323" data-name="Group 323" transform="translate(-221 -4076.04)">
    <path id="Path_1200" data-name="Path 1200" d="M-1077.331,1461.754h-.875v-.9h-.874v-.889h-.874v-.89h-.874v-.892h-1.493V1448.17h2.091v-4.227h-9.158v-3.46h2.972l-22.443-22.443-8.389,8.389-8.389-8.389-22.443,22.443h2.29V1462.4h.013v5.531h68.424v-5.284h.022Zm-6.927-13.584v10.015h-5.13V1448.17Zm-17.106-15.532v6.9h-12.519v-6.9h12.519Zm-32.833,0h12.519v6.9H-1134.2Z" transform="translate(1369.08 2658)" fill="#ff39e3"/>
    <g id="Group_218" data-name="Group 218" transform="translate(301.637 4110.364)">
      <path id="Path_1195" data-name="Path 1195" d="M-1374.649,1642.9a4.954,4.954,0,0,1-5.1,4.785,4.95,4.95,0,0,1-5.1-4.785,4.947,4.947,0,0,1,5.1-4.791A4.951,4.951,0,0,1-1374.649,1642.9Z" transform="translate(1384.849 -1638.112)" fill="#ff39e3"/>
      <rect id="Rectangle_58" data-name="Rectangle 58" width="1.172" height="8.846" transform="translate(4.514 6.72)" fill="#ff39e3"/>
    </g>
  </g>
</svg>
