<svg xmlns="http://www.w3.org/2000/svg" xmlns:xlink="http://www.w3.org/1999/xlink" width="506" height="223" viewBox="0 0 506 223">
  <defs>
    <clipPath id="clip-path">
      <rect id="Rectangle_98" data-name="Rectangle 98" width="506" height="223" transform="translate(769 1616)" fill="none"/>
    </clipPath>
  </defs>
  <g id="Mask_Group_8" data-name="Mask Group 8" transform="translate(-769 -1616)" clip-path="url(#clip-path)">
    <g id="Group_202" data-name="Group 202" transform="translate(768.799 1620.808)">
      <g id="Group_204" data-name="Group 204" transform="translate(0 0)">
        <g id="Group_203" data-name="Group 203" transform="translate(152.18 41.968)">
          <path id="Path_1186" data-name="Path 1186" d="M-1654.179,918.263h27.554V728.253a38.266,38.266,0,0,1-13.719,2.6,38.274,38.274,0,0,1-13.835-2.6Z" transform="translate(1840.167 -728.253)" fill="#ff39e3"/>
          <path id="Path_1187" data-name="Path 1187" d="M-1827.779,911.615h32.255V784.823H-1810.3c-9.654,0-17.48,10.463-17.48,23.371Z" transform="translate(1827.779 -724.216)" fill="#ff39e3"/>
          <path id="Rectangle_55" data-name="Rectangle 55" d="M0,0H37.926a0,0,0,0,1,0,0V29.411A30.931,30.931,0,0,1,7,60.342H0a0,0,0,0,1,0,0V0A0,0,0,0,1,0,0Z" transform="translate(74.277 90.778) rotate(180)" fill="#ff39e3"/>
        </g>
        <path id="Path_1188" data-name="Path 1188" d="M-1475.1,890.294v-8.065h3.44v-6.707h-3.44v-1.477h3.44v-6.707h-3.44v-1.478h3.44v-6.706h-3.44v-2.34h-5.611v-4.443h-23.485v4.443h-5.61v2.34h-3.439v6.706h3.439v1.478h-3.439v6.707h3.439v1.477h-3.439v2.914h-5.363v-5.227h.59v-3.156h-.59v-18.2h.59V848.7h-1.888v-2.253h-1.65v-7.553l.684-.61-4.247-46.562-4.25,46.562.686.611v7.552h-1.651V848.7h-1.886v3.155h.589v18.2h-.589v3.156h.589v17.085h-2.713v-36.57h.523v-3.038h-1.672v-2.167h-1.46v-7.265l.61-.591-3.759-30.753-3.758,30.753.61.593v7.263h-1.459v2.167h-1.673v3.038h.521v36.57h-4.275V806.538h-4.731v-8.2h-4.088V777.786h-8.561v-5h-4.577V759.479h-2.342v13.305h-16.314v1.958h-29.7v.013h-.029v3.031h-.117V798.34h-1.2v8.2h-4.731v61.687h-9.114V722.958l-53.71-33.878V843.342h-5.988V796.82h-6.911V764.415h-3.193V751.728h-5.1v-2.991h1.372v-2h1.081v-1.4h-1.081v-1.061h1.081v-1.4h-1.081v-1.062h1.081v-1.4h-1.081v-1.062h1.081v-1.4h-1.081v-2.639h-1.372V733.6l-6.136-9.728v-8.089l-.571-2.766-.592,2.766v8.452l-6.137,9.365v1.721h-1.118v2.639h-1.08v1.4h1.08v1.062h-1.08v1.4h1.08v1.062h-1.08v1.4h1.08v1.061h-1.08v1.4h1.08v2h1.118v2.991h-5.1v12.687h-3.2v103.81h-3.694V813.608h-63.395v23.266h-25.127v38.1h-.8l-5-5-5,5h-7l-5-5-5,5h-3.528v-14.6h0l-15.24-15.241-4.876,4.877-10.366,10.364h0v0l-.022.021h.022v17.113h-1.437v38.114h-5.1V877.352h-10.348l-13.449-13.452-.019.019h0l-13.433,13.434h-10.345V896.64h-6.481v-4.206a4.622,4.622,0,0,0,4.263-4.469,4.678,4.678,0,0,0-4.815-4.526,4.672,4.672,0,0,0-4.815,4.526,4.615,4.615,0,0,0,4.26,4.469v4.206h-9.627v-3.026a3.668,3.668,0,0,0,3.383-3.545,3.712,3.712,0,0,0-3.821-3.59,3.706,3.706,0,0,0-3.819,3.59,3.662,3.662,0,0,0,3.378,3.545v3.026h-8.064V894.7a2.791,2.791,0,0,0,2.573-2.7,2.826,2.826,0,0,0-2.907-2.735,2.823,2.823,0,0,0-2.909,2.735,2.786,2.786,0,0,0,2.572,2.7v1.945l-.061,32.938,30.237-8.674h11.959v8.674h12.473V920.9h13.419v8.674h12.473V920.9h13.419v8.674h12.474V920.9h13.418v8.674h12.474V920.9h13.419v8.674h12.473V920.9h13.419v8.674h9.761V920.9h13.418v8.674h12.474V920.9h11.044v8.674h210.334V920.9h9.591v8.674h12.474V920.9h13.419v8.674h12.472V920.9h13.419v8.674h11.463V890.294Z" transform="translate(1969.823 -689.08)" fill="#ff39e3"/>
        <path id="Path_1189" data-name="Path 1189" d="M-1541.589,837.691a.382.382,0,0,0,.376.362h6.037a2.847,2.847,0,0,0,1.948,2.579v.593a.359.359,0,0,0,.359.358h.149a.359.359,0,0,0,.359-.358v-.437l.025,0h1.9v.435a.359.359,0,0,0,.359.358h.149a.359.359,0,0,0,.359-.358v-.5a2.86,2.86,0,0,0,2.246-2.782h0a2.858,2.858,0,0,0-2.85-2.851h-.942V834.5h6.894a.225.225,0,0,0,.224-.224v-.093a.224.224,0,0,0-.224-.223h-6.929a.194.194,0,0,0-.17-.119h-.086a.192.192,0,0,0-.168.119h-6.713a.223.223,0,0,0-.223.223v.093a.224.224,0,0,0,.223.224h6.676v.589h-.724a2.849,2.849,0,0,0-2.715,2.032h-5.82l-1.022-1.023a.378.378,0,0,0-.534,0l-.111.112a.379.379,0,0,0,0,.533Z" transform="translate(2000.305 -678.75)" fill="#ff39e3"/>
      </g>
    </g>
  </g>
</svg>
