<svg xmlns="http://www.w3.org/2000/svg" xmlns:xlink="http://www.w3.org/1999/xlink" width="189" height="91" viewBox="0 0 189 91">
  <defs>
    <clipPath id="clip-path">
      <rect id="Rectangle_96" data-name="Rectangle 96" width="189" height="91" transform="translate(218 1533)" fill="none"/>
    </clipPath>
  </defs>
  <g id="Mask_Group_6" data-name="Mask Group 6" transform="translate(-218 -1533)" clip-path="url(#clip-path)">
    <g id="Group_293" data-name="Group 293" transform="translate(126 1511.75)">
      <g id="Group_202" data-name="Group 202" transform="translate(0 21.347)">
        <g id="Group_204" data-name="Group 204" transform="translate(0 0)">
          <g id="Group_203" data-name="Group 203" transform="translate(93.239 25.713)">
            <path id="Path_1186" data-name="Path 1186" d="M-1654.179,844.67h16.882V728.253a23.441,23.441,0,0,1-8.405,1.6,23.446,23.446,0,0,1-8.477-1.6Z" transform="translate(1768.132 -728.253)" fill="#ff39e3"/>
            <path id="Path_1187" data-name="Path 1187" d="M-1827.779,862.507h19.763V784.823h-9.052c-5.915,0-10.71,6.41-10.71,14.319Z" transform="translate(1827.779 -747.69)" fill="#ff39e3"/>
            <path id="Rectangle_55" data-name="Rectangle 55" d="M0,0H23.237a0,0,0,0,1,0,0V13.734A23.237,23.237,0,0,1,0,36.971H0a0,0,0,0,1,0,0V0A0,0,0,0,1,0,0Z" transform="translate(45.509 55.618) rotate(180)" fill="#ff39e3"/>
          </g>
          <path id="Path_1188" data-name="Path 1188" d="M-1666.71,812.362V807.42h2.107v-4.109h-2.107v-.905h2.107V798.3h-2.107v-.906h2.107v-4.109h-2.107v-1.433h-3.438v-2.722h-14.389v2.722h-3.437v1.433h-2.107v4.109h2.107v.906h-2.107v4.109h2.107v.905h-2.107V805.1h-3.286v-3.2h.361V799.96h-.361V788.81h.361v-1.934h-1.156V785.5h-1.011v-4.628l.419-.374-2.6-28.528-2.6,28.528.419.374V785.5h-1.011v1.38h-1.155v1.934h.36V799.96h-.36v1.934h.36v10.468h-1.662V789.956h.32v-1.862h-1.024v-1.328h-.895v-4.451l.374-.362-2.3-18.842-2.3,18.842.374.364v4.45h-.894v1.328h-1.024v1.862h.319v22.406h-2.619V761.045h-2.9v-5.023h-2.506V743.429h-5.245v-3.065h-2.8v-8.152h-1.435v8.152h-10v1.2h-18.2v.008h-.018v1.857h-.072v12.593h-.732v5.023h-2.9V798.84h-5.584v-89l-32.907-20.757v94.515h-3.669v-28.5h-4.234V735.237h-1.956v-7.773h-3.124v-1.833h.841v-1.223h.662v-.859h-.662v-.65h.662v-.857h-.662v-.651h.662v-.859h-.662v-.651h.662v-.857h-.662v-1.617h-.841v-1.054l-3.759-5.96v-4.956l-.351-1.695-.363,1.695v5.178l-3.76,5.738v1.054h-.685v1.617h-.662v.857h.662v.651h-.662v.859h.662v.651h-.662v.857h.662v.65h-.662v.859h.662v1.223h.685v1.833h-3.122v7.773h-1.958v63.6h-2.263V765.377h-38.842v14.255h-15.394v23.342h-.488l-3.065-3.065-3.064,3.065h-4.287l-3.065-3.065-3.063,3.065h-2.162V794.03h0l-9.337-9.338-2.987,2.988-6.351,6.35h0v0l-.014.013h.014V804.53h-.881v23.352h-3.124v-23.45h-6.341l-8.24-8.242-.012.012h0l-8.23,8.231h-6.338v11.817h-3.97v-2.577a2.832,2.832,0,0,0,2.612-2.738,2.866,2.866,0,0,0-2.95-2.773,2.862,2.862,0,0,0-2.95,2.773,2.828,2.828,0,0,0,2.61,2.738v2.577h-5.9V814.4a2.247,2.247,0,0,0,2.073-2.172,2.274,2.274,0,0,0-2.341-2.2,2.271,2.271,0,0,0-2.34,2.2,2.244,2.244,0,0,0,2.07,2.172v1.854h-4.941v-1.191a1.71,1.71,0,0,0,1.576-1.652,1.731,1.731,0,0,0-1.78-1.676,1.729,1.729,0,0,0-1.782,1.676,1.707,1.707,0,0,0,1.575,1.651v1.191l-.038,20.181,18.526-5.314h7.327v5.314h7.642v-5.314h8.222v5.314h7.642v-5.314h8.221v5.314h7.642v-5.314h8.221v5.314h7.642v-5.314h8.222v5.314h7.642v-5.314h8.222v5.314h5.981v-5.314h8.22v5.314h7.643v-5.314h6.767v5.314h128.869v-5.314h5.876v5.314h7.643v-5.314h8.221v5.314h7.642v-5.314h8.223v5.314h7.023V812.362Z" transform="translate(1969.823 -689.08)" fill="#ff39e3"/>
          <path id="Path_1189" data-name="Path 1189" d="M-1542,836.2a.235.235,0,0,0,.23.222h3.7a1.743,1.743,0,0,0,1.193,1.58v.363a.22.22,0,0,0,.22.219h.091a.22.22,0,0,0,.22-.219V838.1h1.179v.267a.22.22,0,0,0,.22.219h.092a.22.22,0,0,0,.219-.219v-.308a1.751,1.751,0,0,0,1.376-1.7h0a1.751,1.751,0,0,0-1.746-1.747h-.577v-.361h4.224a.138.138,0,0,0,.137-.138v-.057a.138.138,0,0,0-.137-.137h-4.246a.117.117,0,0,0-.1-.073h-.052a.118.118,0,0,0-.1.073h-4.113a.137.137,0,0,0-.137.137v.057a.137.137,0,0,0,.137.138h4.091v.361h-.444a1.746,1.746,0,0,0-1.664,1.245h-3.565l-.626-.627a.232.232,0,0,0-.327,0l-.068.068a.233.233,0,0,0,0,.327Z" transform="translate(1823.049 -738.819)" fill="#ff39e3"/>
        </g>
      </g>
    </g>
  </g>
</svg>
