<svg xmlns="http://www.w3.org/2000/svg" width="70.894" height="24.229" viewBox="0 0 70.894 24.229">
  <g id="Group_162" data-name="Group 162" transform="translate(-1284.131 -482.944)">
    <g id="Group_161" data-name="Group 161" transform="translate(1284.131 482.944)">
      <path id="Path_1154" data-name="Path 1154" d="M1489.864,507.172h-1.327a31.131,31.131,0,0,1-5.206-.35c-2.5-.476-3.429-1.377-3.429-2.728,0-1.652,1.326-2.653,4.981-2.878-3.379-.125-4.856-.951-4.856-2.9,0-1.777,1.276-2.928,4.63-3.229-2.878-.476-4.23-1.577-4.23-3.98,0-3.129,2.753-5.006,8.885-5.006h.8a5.628,5.628,0,0,0,1.627-.175c.8-.225,1.1-.826,1.1-2.178v-.8h6.307v.375c0,1.652-.325,2.478-1.327,2.853-.976.4-2.653.4-5.406.4l-1.9-.075a29.78,29.78,0,0,1,3.729.3c3.329.425,4.83,1.752,4.83,4.33,0,3.254-2.478,4.756-8.86,4.756h-2.328c-.976,0-1.677.05-2.177.075-.976.1-1.2.3-1.2.676,0,.476.651.576,3.3.576h4.58c5.356,0,7.409,1.252,7.409,4.43v.075C1499.8,505.37,1496.9,507.172,1489.864,507.172Zm3.154-3.829c1.176-.225,1.527-.576,1.527-1.051v-.075a.93.93,0,0,0-.2-.551c-.225-.275-.951-.425-2.553-.425h-3.2c-2.177,0-2.979.325-2.979,1.126v.025c0,.851,1.151,1.1,4.13,1.1h.776A15.827,15.827,0,0,0,1493.017,503.343Zm.526-12.164c0-1-.876-1.4-3.6-1.4h-.4c-2.478.025-3.354.4-3.354,1.452,0,1,.951,1.251,3.6,1.251C1492.517,492.48,1493.543,492.13,1493.543,491.179Z" transform="translate(-1434.834 -482.944)"/>
      <path id="Path_1155" data-name="Path 1155" d="M1290.09,505.715h-5.959V487.688h5.531l5.657,6.738,5.783-6.738h5.33v18.027H1300.5V495.709l-5.1,5.732h-.427l-4.878-5.683Z" transform="translate(-1284.131 -486.596)"/>
      <path id="Path_1156" data-name="Path 1156" d="M1395.882,515.834c-3.855,0-5.795-1.318-5.795-4.028v-.025a3.743,3.743,0,0,1,2.288-3.681,7.662,7.662,0,0,1,1.492-.547,26.444,26.444,0,0,1,4.974-.672c1.169-.1,2.014-.174,2.611-.274,1.244-.174,1.567-.423,1.567-.9,0-.671-.6-1.243-2.76-1.243-2.636,0-3.532.622-3.631,1.716h-6.118c.423-3.855,3.78-5.645,9.475-5.645,5.969,0,8.8,1.617,8.8,6.292v8.784h-5.073l-.547-3.164C1402.074,514.441,1399.686,515.834,1395.882,515.834Zm4.75-4.178c1.468-.6,2.412-1.641,2.412-2.785v-.15a5.676,5.676,0,0,1-2.934.87,8.739,8.739,0,0,0-3.133.6,1.04,1.04,0,0,0-.622.92v.025c0,.622.522.994,1.865.994A5.88,5.88,0,0,0,1400.631,511.656Z" transform="translate(-1365.695 -496.489)"/>
    </g>
    <circle id="Ellipse_25" data-name="Ellipse 25" cx="1.918" cy="1.918" r="1.918" transform="translate(1351.188 498.418)"/>
  </g>
</svg>
