<svg xmlns="http://www.w3.org/2000/svg" width="19.509" height="21.607" viewBox="0 0 19.509 21.607">
  <g id="package" transform="translate(0.755 0.779)">
    <line id="Line_3" data-name="Line 3" x1="9" y1="5.19" transform="translate(4.5 2.208)" fill="none" stroke="#ec1906" stroke-linecap="round" stroke-linejoin="round" stroke-width="1.5"/>
    <path id="Path_1173" data-name="Path 1173" d="M21,16V8a2,2,0,0,0-1-1.73l-7-4a2,2,0,0,0-2,0l-7,4A2,2,0,0,0,3,8v8a2,2,0,0,0,1,1.73l7,4a2,2,0,0,0,2,0l7-4A2,2,0,0,0,21,16Z" transform="translate(-3 -2.002)" fill="none" stroke="#ec1906" stroke-linecap="round" stroke-linejoin="round" stroke-width="1.5"/>
    <path id="Path_1174" data-name="Path 1174" d="M3.27,6.96,12,12.01l8.73-5.05" transform="translate(-3 -2.002)" fill="none" stroke="#ec1906" stroke-linecap="round" stroke-linejoin="round" stroke-width="1.5"/>
    <line id="Line_4" data-name="Line 4" y1="10.08" transform="translate(9 9.998)" fill="none" stroke="#ec1906" stroke-linecap="round" stroke-linejoin="round" stroke-width="1.5"/>
  </g>
</svg>
