<svg xmlns="http://www.w3.org/2000/svg" width="170.747" height="170.746" viewBox="0 0 170.747 170.746">
  <path id="Path_1183" data-name="Path 1183" d="M-5799.386,366.816l11.1-16.273,6.5,18.59,14.928-12.847,1.472,19.64,17.745-8.545-3.662,19.352,19.352-3.661-8.545,17.745,19.64,1.472-12.847,14.928,18.59,6.505-16.273,11.095,16.273,11.095-18.59,6.5,12.847,14.928-19.64,1.472,8.545,17.745L-5751.3,482.9l3.662,19.352-17.745-8.545-1.472,19.64-14.928-12.847-6.5,18.59-11.1-16.273-11.095,16.273-6.505-18.59-14.929,12.847-1.472-19.64-17.745,8.545,3.662-19.352-19.352,3.661,8.545-17.745-19.64-1.472,12.847-14.928-18.59-6.5,16.273-11.095-16.273-11.095,18.59-6.505-12.847-14.928,19.64-1.472-8.545-17.745,19.352,3.661-3.662-19.352,17.745,8.545,1.472-19.64,14.929,12.847,6.505-18.59Z" transform="translate(5884.759 -349.443)" fill="#ff39e3" stroke="rgba(0,0,0,0)" stroke-width="1"/>
</svg>
