<svg xmlns="http://www.w3.org/2000/svg" width="142.096" height="142.097" viewBox="0 0 142.096 142.097">
  <path id="Path_1179" data-name="Path 1179" d="M-5812.611,364.262l9.354-13.719,5.483,15.673,12.586-10.831,1.241,16.558,14.96-7.2-3.087,16.315,16.314-3.087-7.2,14.96,16.558,1.241-10.83,12.586,15.673,5.484-13.72,9.354,13.72,9.354-15.673,5.484,10.83,12.586-16.558,1.241,7.2,14.96-16.314-3.087,3.087,16.315-14.96-7.2-1.241,16.558-12.586-10.831-5.483,15.673-9.354-13.719-9.354,13.719-5.484-15.673-12.586,10.831-1.241-16.558-14.96,7.2,3.088-16.315-16.315,3.087,7.2-14.96-16.558-1.241,10.83-12.586-15.672-5.484,13.719-9.354-13.719-9.354,15.672-5.484-10.83-12.586,16.558-1.241-7.2-14.96,16.315,3.087-3.088-16.315,14.96,7.2,1.241-16.558,12.586,10.831,5.484-15.673Z" transform="translate(-350.543 -5741.563) rotate(-90)" fill="#ec1906"/>
</svg>
